<svg id="visual" viewBox="0 0 540 960" width="540" height="960" xmlns="http://www.w3.org/2000/svg" xmlns:xlink="http://www.w3.org/1999/xlink" version="1.1"><g stroke-width="1" stroke-linejoin="bevel"><path d="M287 464L237 446L249 507Z" fill="#2f5484" stroke="#000000"></path><path d="M237 446L237 524L249 507Z" fill="#1c567f" stroke="#000000"></path><path d="M249 507L299 534L287 464Z" fill="#564d85" stroke="#000000"></path><path d="M237 524L265 545L249 507Z" fill="#005870" stroke="#000000"></path><path d="M265 545L299 534L249 507Z" fill="#9a3356" stroke="#000000"></path><path d="M222 550L232 545L237 524Z" fill="#564d85" stroke="#000000"></path><path d="M237 524L232 545L265 545Z" fill="#564d85" stroke="#000000"></path><path d="M342 490L295 411L287 464Z" fill="#564d85" stroke="#000000"></path><path d="M287 464L295 411L237 446Z" fill="#78427a" stroke="#000000"></path><path d="M141 555L222 550L237 524Z" fill="#564d85" stroke="#000000"></path><path d="M228 596L279 588L265 545Z" fill="#9a3356" stroke="#000000"></path><path d="M295 411L270 389L237 446Z" fill="#923764" stroke="#000000"></path><path d="M299 534L342 490L287 464Z" fill="#075878" stroke="#000000"></path><path d="M270 389L183 422L237 446Z" fill="#863c71" stroke="#000000"></path><path d="M237 446L139 458L237 524Z" fill="#684881" stroke="#000000"></path><path d="M340 371L264 373L270 389Z" fill="#2f5484" stroke="#000000"></path><path d="M270 389L264 373L183 422Z" fill="#1c567f" stroke="#000000"></path><path d="M351 532L358 501L342 490Z" fill="#78427a" stroke="#000000"></path><path d="M342 490L340 371L295 411Z" fill="#435186" stroke="#000000"></path><path d="M279 588L351 532L299 534Z" fill="#863c71" stroke="#000000"></path><path d="M299 534L351 532L342 490Z" fill="#005870" stroke="#000000"></path><path d="M228 596L265 545L232 545Z" fill="#564d85" stroke="#000000"></path><path d="M265 545L279 588L299 534Z" fill="#9a3356" stroke="#000000"></path><path d="M183 422L139 458L237 446Z" fill="#564d85" stroke="#000000"></path><path d="M203 611L228 596L222 550Z" fill="#78427a" stroke="#000000"></path><path d="M222 550L228 596L232 545Z" fill="#923764" stroke="#000000"></path><path d="M125 400L128 465L139 458Z" fill="#075878" stroke="#000000"></path><path d="M139 458L141 555L237 524Z" fill="#923764" stroke="#000000"></path><path d="M428 419L340 371L342 490Z" fill="#684881" stroke="#000000"></path><path d="M295 411L340 371L270 389Z" fill="#005870" stroke="#000000"></path><path d="M128 465L141 555L139 458Z" fill="#78427a" stroke="#000000"></path><path d="M340 371L250 334L264 373Z" fill="#684881" stroke="#000000"></path><path d="M264 373L250 334L183 422Z" fill="#923764" stroke="#000000"></path><path d="M183 422L125 400L139 458Z" fill="#863c71" stroke="#000000"></path><path d="M141 555L203 611L222 550Z" fill="#005870" stroke="#000000"></path><path d="M228 596L255 636L279 588Z" fill="#005870" stroke="#000000"></path><path d="M113 328L125 400L183 422Z" fill="#564d85" stroke="#000000"></path><path d="M203 611L255 636L228 596Z" fill="#863c71" stroke="#000000"></path><path d="M279 588L352 627L351 532Z" fill="#78427a" stroke="#000000"></path><path d="M8 514L99 529L0 476Z" fill="#9a3356" stroke="#000000"></path><path d="M128 465L99 529L141 555Z" fill="#075878" stroke="#000000"></path><path d="M141 555L117 577L203 611Z" fill="#005870" stroke="#000000"></path><path d="M99 529L117 577L141 555Z" fill="#1c567f" stroke="#000000"></path><path d="M250 691L284 665L255 636Z" fill="#075878" stroke="#000000"></path><path d="M303 669L352 627L279 588Z" fill="#923764" stroke="#000000"></path><path d="M442 419L428 419L478 453Z" fill="#075878" stroke="#000000"></path><path d="M428 419L358 501L458 534Z" fill="#005870" stroke="#000000"></path><path d="M358 501L428 419L342 490Z" fill="#684881" stroke="#000000"></path><path d="M442 419L429 418L428 419Z" fill="#78427a" stroke="#000000"></path><path d="M428 419L429 418L340 371Z" fill="#564d85" stroke="#000000"></path><path d="M99 529L111 594L117 577Z" fill="#435186" stroke="#000000"></path><path d="M117 577L111 594L203 611Z" fill="#005870" stroke="#000000"></path><path d="M250 691L255 636L203 611Z" fill="#863c71" stroke="#000000"></path><path d="M255 636L284 665L279 588Z" fill="#863c71" stroke="#000000"></path><path d="M458 534L358 501L351 532Z" fill="#075878" stroke="#000000"></path><path d="M429 418L417 299L340 371Z" fill="#075878" stroke="#000000"></path><path d="M284 665L303 669L279 588Z" fill="#075878" stroke="#000000"></path><path d="M250 334L113 328L183 422Z" fill="#78427a" stroke="#000000"></path><path d="M0 476L99 529L128 465Z" fill="#2f5484" stroke="#000000"></path><path d="M303 669L369 644L352 627Z" fill="#564d85" stroke="#000000"></path><path d="M444 601L458 534L351 532Z" fill="#564d85" stroke="#000000"></path><path d="M308 230L234 265L250 334Z" fill="#1c567f" stroke="#000000"></path><path d="M250 334L190 262L113 328Z" fill="#684881" stroke="#000000"></path><path d="M308 230L250 334L340 371Z" fill="#564d85" stroke="#000000"></path><path d="M444 601L351 532L352 627Z" fill="#564d85" stroke="#000000"></path><path d="M140 714L250 691L203 611Z" fill="#863c71" stroke="#000000"></path><path d="M284 665L305 707L303 669Z" fill="#2f5484" stroke="#000000"></path><path d="M303 669L305 707L369 644Z" fill="#78427a" stroke="#000000"></path><path d="M116 299L93 327L113 328Z" fill="#78427a" stroke="#000000"></path><path d="M113 328L93 327L125 400Z" fill="#005870" stroke="#000000"></path><path d="M234 265L190 262L250 334Z" fill="#923764" stroke="#000000"></path><path d="M190 262L116 299L113 328Z" fill="#863c71" stroke="#000000"></path><path d="M458 534L478 453L428 419Z" fill="#684881" stroke="#000000"></path><path d="M369 644L444 601L352 627Z" fill="#684881" stroke="#000000"></path><path d="M458 534L492 548L478 453Z" fill="#684881" stroke="#000000"></path><path d="M26 613L106 655L111 594Z" fill="#1c567f" stroke="#000000"></path><path d="M111 594L113 664L203 611Z" fill="#005870" stroke="#000000"></path><path d="M216 238L180 251L190 262Z" fill="#78427a" stroke="#000000"></path><path d="M190 262L180 251L116 299Z" fill="#863c71" stroke="#000000"></path><path d="M478 453L479 399L442 419Z" fill="#684881" stroke="#000000"></path><path d="M442 419L479 399L429 418Z" fill="#564d85" stroke="#000000"></path><path d="M106 655L113 664L111 594Z" fill="#564d85" stroke="#000000"></path><path d="M250 691L305 707L284 665Z" fill="#1c567f" stroke="#000000"></path><path d="M369 644L400 683L444 601Z" fill="#435186" stroke="#000000"></path><path d="M305 726L305 707L250 691Z" fill="#2f5484" stroke="#000000"></path><path d="M479 399L417 299L429 418Z" fill="#923764" stroke="#000000"></path><path d="M234 265L216 238L190 262Z" fill="#2f5484" stroke="#000000"></path><path d="M308 230L216 238L234 265Z" fill="#684881" stroke="#000000"></path><path d="M444 601L492 548L458 534Z" fill="#2f5484" stroke="#000000"></path><path d="M478 453L540 427L479 399Z" fill="#923764" stroke="#000000"></path><path d="M349 228L308 230L340 371Z" fill="#1c567f" stroke="#000000"></path><path d="M0 476L128 465L0 454Z" fill="#78427a" stroke="#000000"></path><path d="M99 529L26 613L111 594Z" fill="#075878" stroke="#000000"></path><path d="M305 707L400 683L369 644Z" fill="#863c71" stroke="#000000"></path><path d="M444 601L540 559L492 548Z" fill="#923764" stroke="#000000"></path><path d="M0 454L128 465L125 400Z" fill="#435186" stroke="#000000"></path><path d="M5 348L0 454L125 400Z" fill="#1c567f" stroke="#000000"></path><path d="M228 749L305 726L250 691Z" fill="#923764" stroke="#000000"></path><path d="M305 707L305 726L400 683Z" fill="#9a3356" stroke="#000000"></path><path d="M0 476L0 532L8 514Z" fill="#564d85" stroke="#000000"></path><path d="M8 514L0 532L99 529Z" fill="#863c71" stroke="#000000"></path><path d="M101 783L140 714L0 711Z" fill="#075878" stroke="#000000"></path><path d="M337 218L312 218L308 230Z" fill="#564d85" stroke="#000000"></path><path d="M308 230L312 218L216 238Z" fill="#923764" stroke="#000000"></path><path d="M417 299L349 228L340 371Z" fill="#9a3356" stroke="#000000"></path><path d="M118 192L109 252L180 251Z" fill="#075878" stroke="#000000"></path><path d="M180 251L109 252L116 299Z" fill="#1c567f" stroke="#000000"></path><path d="M116 299L109 252L93 327Z" fill="#9a3356" stroke="#000000"></path><path d="M93 327L5 348L125 400Z" fill="#005870" stroke="#000000"></path><path d="M185 203L180 251L216 238Z" fill="#435186" stroke="#000000"></path><path d="M140 714L113 664L0 711Z" fill="#564d85" stroke="#000000"></path><path d="M113 664L140 714L203 611Z" fill="#78427a" stroke="#000000"></path><path d="M0 532L26 613L99 529Z" fill="#684881" stroke="#000000"></path><path d="M349 228L337 218L308 230Z" fill="#863c71" stroke="#000000"></path><path d="M180 757L228 749L250 691Z" fill="#684881" stroke="#000000"></path><path d="M213 181L185 203L216 238Z" fill="#2f5484" stroke="#000000"></path><path d="M213 181L216 238L312 218Z" fill="#684881" stroke="#000000"></path><path d="M0 301L5 348L93 327Z" fill="#005870" stroke="#000000"></path><path d="M479 399L471 294L417 299Z" fill="#075878" stroke="#000000"></path><path d="M417 299L454 199L349 228Z" fill="#075878" stroke="#000000"></path><path d="M381 152L324 159L337 218Z" fill="#9a3356" stroke="#000000"></path><path d="M545 354L471 294L479 399Z" fill="#923764" stroke="#000000"></path><path d="M540 510L540 476L478 453Z" fill="#1c567f" stroke="#000000"></path><path d="M466 739L417 830L470 789Z" fill="#435186" stroke="#000000"></path><path d="M305 726L427 703L400 683Z" fill="#2f5484" stroke="#000000"></path><path d="M400 683L489 667L444 601Z" fill="#684881" stroke="#000000"></path><path d="M492 548L540 510L478 453Z" fill="#923764" stroke="#000000"></path><path d="M540 559L540 510L492 548Z" fill="#9a3356" stroke="#000000"></path><path d="M0 532L0 606L26 613Z" fill="#2f5484" stroke="#000000"></path><path d="M26 613L0 707L106 655Z" fill="#863c71" stroke="#000000"></path><path d="M540 476L540 427L478 453Z" fill="#2f5484" stroke="#000000"></path><path d="M540 427L540 408L479 399Z" fill="#1c567f" stroke="#000000"></path><path d="M154 794L180 757L140 714Z" fill="#9a3356" stroke="#000000"></path><path d="M140 714L180 757L250 691Z" fill="#684881" stroke="#000000"></path><path d="M192 160L213 181L210 151Z" fill="#564d85" stroke="#000000"></path><path d="M185 203L118 192L180 251Z" fill="#005870" stroke="#000000"></path><path d="M0 532L-1 625L0 606Z" fill="#564d85" stroke="#000000"></path><path d="M0 606L-1 625L26 613Z" fill="#435186" stroke="#000000"></path><path d="M0 476L-1 625L0 532Z" fill="#075878" stroke="#000000"></path><path d="M0 454L-1 625L0 476Z" fill="#2f5484" stroke="#000000"></path><path d="M489 667L540 559L444 601Z" fill="#78427a" stroke="#000000"></path><path d="M427 703L489 667L400 683Z" fill="#2f5484" stroke="#000000"></path><path d="M0 280L0 301L93 327Z" fill="#005870" stroke="#000000"></path><path d="M5 348L0 301L0 454Z" fill="#9a3356" stroke="#000000"></path><path d="M0 454L0 301L-1 625Z" fill="#684881" stroke="#000000"></path><path d="M0 280L93 327L109 252Z" fill="#2f5484" stroke="#000000"></path><path d="M155 136L118 192L185 203Z" fill="#78427a" stroke="#000000"></path><path d="M540 408L545 354L479 399Z" fill="#923764" stroke="#000000"></path><path d="M540 427L545 354L540 408Z" fill="#005870" stroke="#000000"></path><path d="M540 476L545 354L540 427Z" fill="#435186" stroke="#000000"></path><path d="M540 510L545 354L540 476Z" fill="#78427a" stroke="#000000"></path><path d="M551 772L545 354L540 510Z" fill="#435186" stroke="#000000"></path><path d="M213 181L192 160L185 203Z" fill="#1c567f" stroke="#000000"></path><path d="M324 159L213 181L312 218Z" fill="#564d85" stroke="#000000"></path><path d="M0 255L0 280L109 252Z" fill="#1c567f" stroke="#000000"></path><path d="M0 301L0 280L-1 625Z" fill="#684881" stroke="#000000"></path><path d="M381 152L337 218L349 228Z" fill="#863c71" stroke="#000000"></path><path d="M337 218L324 159L312 218Z" fill="#564d85" stroke="#000000"></path><path d="M454 199L417 299L481 220Z" fill="#863c71" stroke="#000000"></path><path d="M220 135L210 151L213 181Z" fill="#1c567f" stroke="#000000"></path><path d="M155 136L102 175L118 192Z" fill="#564d85" stroke="#000000"></path><path d="M545 354L540 311L471 294Z" fill="#1c567f" stroke="#000000"></path><path d="M101 783L154 794L140 714Z" fill="#005870" stroke="#000000"></path><path d="M180 757L217 866L228 749Z" fill="#1c567f" stroke="#000000"></path><path d="M228 749L307 815L305 726Z" fill="#9a3356" stroke="#000000"></path><path d="M155 136L185 203L192 160Z" fill="#2f5484" stroke="#000000"></path><path d="M118 192L102 175L109 252Z" fill="#1c567f" stroke="#000000"></path><path d="M102 175L0 255L109 252Z" fill="#005870" stroke="#000000"></path><path d="M0 280L0 255L-1 625Z" fill="#9a3356" stroke="#000000"></path><path d="M417 830L427 703L305 726Z" fill="#564d85" stroke="#000000"></path><path d="M427 703L466 739L489 667Z" fill="#684881" stroke="#000000"></path><path d="M489 667L540 692L540 559Z" fill="#2f5484" stroke="#000000"></path><path d="M481 220L417 299L471 294Z" fill="#564d85" stroke="#000000"></path><path d="M540 250L481 220L471 294Z" fill="#78427a" stroke="#000000"></path><path d="M324 159L220 135L213 181Z" fill="#005870" stroke="#000000"></path><path d="M185 122L155 136L192 160Z" fill="#684881" stroke="#000000"></path><path d="M307 846L307 815L239 877Z" fill="#564d85" stroke="#000000"></path><path d="M0 707L113 664L106 655Z" fill="#075878" stroke="#000000"></path><path d="M-1 625L0 707L26 613Z" fill="#005870" stroke="#000000"></path><path d="M454 199L381 152L349 228Z" fill="#1c567f" stroke="#000000"></path><path d="M324 159L257 101L220 135Z" fill="#923764" stroke="#000000"></path><path d="M-1 625L0 711L0 707Z" fill="#564d85" stroke="#000000"></path><path d="M0 707L0 711L113 664Z" fill="#9a3356" stroke="#000000"></path><path d="M185 122L192 160L210 151Z" fill="#9a3356" stroke="#000000"></path><path d="M381 152L329 129L324 159Z" fill="#1c567f" stroke="#000000"></path><path d="M220 135L185 122L210 151Z" fill="#075878" stroke="#000000"></path><path d="M466 739L540 692L489 667Z" fill="#1c567f" stroke="#000000"></path><path d="M540 559L551 772L540 510Z" fill="#78427a" stroke="#000000"></path><path d="M257 101L185 122L220 135Z" fill="#005870" stroke="#000000"></path><path d="M545 354L540 250L540 311Z" fill="#9a3356" stroke="#000000"></path><path d="M540 311L540 250L471 294Z" fill="#923764" stroke="#000000"></path><path d="M440 132L411 135L454 199Z" fill="#9a3356" stroke="#000000"></path><path d="M454 199L411 135L381 152Z" fill="#564d85" stroke="#000000"></path><path d="M470 789L478 760L466 739Z" fill="#78427a" stroke="#000000"></path><path d="M466 739L540 742L540 692Z" fill="#075878" stroke="#000000"></path><path d="M329 129L257 101L324 159Z" fill="#9a3356" stroke="#000000"></path><path d="M0 711L77 802L101 783Z" fill="#684881" stroke="#000000"></path><path d="M101 783L109 823L154 794Z" fill="#863c71" stroke="#000000"></path><path d="M217 866L307 815L228 749Z" fill="#075878" stroke="#000000"></path><path d="M381 152L362 110L329 129Z" fill="#923764" stroke="#000000"></path><path d="M329 129L357 26L257 101Z" fill="#923764" stroke="#000000"></path><path d="M440 132L454 199L481 117Z" fill="#005870" stroke="#000000"></path><path d="M217 866L180 757L154 794Z" fill="#78427a" stroke="#000000"></path><path d="M417 830L466 739L427 703Z" fill="#923764" stroke="#000000"></path><path d="M77 802L109 823L101 783Z" fill="#863c71" stroke="#000000"></path><path d="M411 135L362 110L381 152Z" fill="#9a3356" stroke="#000000"></path><path d="M417 830L305 726L307 815Z" fill="#1c567f" stroke="#000000"></path><path d="M478 760L540 742L466 739Z" fill="#863c71" stroke="#000000"></path><path d="M103 46L140 107L145 0Z" fill="#075878" stroke="#000000"></path><path d="M185 122L140 107L155 136Z" fill="#923764" stroke="#000000"></path><path d="M155 136L140 107L102 175Z" fill="#435186" stroke="#000000"></path><path d="M102 175L0 172L0 255Z" fill="#9a3356" stroke="#000000"></path><path d="M481 117L454 199L540 161Z" fill="#075878" stroke="#000000"></path><path d="M411 135L417 70L362 110Z" fill="#78427a" stroke="#000000"></path><path d="M384 849L417 830L307 815Z" fill="#1c567f" stroke="#000000"></path><path d="M540 776L478 760L470 789Z" fill="#075878" stroke="#000000"></path><path d="M540 776L540 742L478 760Z" fill="#923764" stroke="#000000"></path><path d="M540 692L551 772L540 559Z" fill="#2f5484" stroke="#000000"></path><path d="M348 860L361 851L307 815Z" fill="#863c71" stroke="#000000"></path><path d="M183 871L217 866L154 794Z" fill="#78427a" stroke="#000000"></path><path d="M307 846L348 860L307 815Z" fill="#863c71" stroke="#000000"></path><path d="M0 114L0 172L102 175Z" fill="#075878" stroke="#000000"></path><path d="M0 255L0 172L-1 625Z" fill="#78427a" stroke="#000000"></path><path d="M348 860L384 849L361 851Z" fill="#1c567f" stroke="#000000"></path><path d="M361 851L384 849L307 815Z" fill="#564d85" stroke="#000000"></path><path d="M286 912L348 860L307 846Z" fill="#564d85" stroke="#000000"></path><path d="M212 919L239 877L217 866Z" fill="#684881" stroke="#000000"></path><path d="M217 866L239 877L307 815Z" fill="#9a3356" stroke="#000000"></path><path d="M109 823L183 871L154 794Z" fill="#923764" stroke="#000000"></path><path d="M540 844L540 776L470 789Z" fill="#005870" stroke="#000000"></path><path d="M540 742L551 772L540 692Z" fill="#564d85" stroke="#000000"></path><path d="M456 891L470 789L417 830Z" fill="#564d85" stroke="#000000"></path><path d="M540 844L551 772L540 776Z" fill="#075878" stroke="#000000"></path><path d="M540 776L551 772L540 742Z" fill="#564d85" stroke="#000000"></path><path d="M540 161L454 199L481 220Z" fill="#435186" stroke="#000000"></path><path d="M440 132L417 70L411 135Z" fill="#075878" stroke="#000000"></path><path d="M362 110L357 26L329 129Z" fill="#1c567f" stroke="#000000"></path><path d="M-1 625L0 811L0 711Z" fill="#78427a" stroke="#000000"></path><path d="M0 711L0 811L77 802Z" fill="#863c71" stroke="#000000"></path><path d="M77 802L83 908L109 823Z" fill="#78427a" stroke="#000000"></path><path d="M186 960L212 919L183 871Z" fill="#923764" stroke="#000000"></path><path d="M545 354L540 161L540 250Z" fill="#2f5484" stroke="#000000"></path><path d="M540 250L540 161L481 220Z" fill="#005870" stroke="#000000"></path><path d="M481 117L417 70L440 132Z" fill="#075878" stroke="#000000"></path><path d="M145 0L140 107L185 122Z" fill="#863c71" stroke="#000000"></path><path d="M212 919L286 912L239 877Z" fill="#564d85" stroke="#000000"></path><path d="M239 877L286 912L307 846Z" fill="#923764" stroke="#000000"></path><path d="M445 903L417 830L384 849Z" fill="#564d85" stroke="#000000"></path><path d="M445 903L456 891L417 830Z" fill="#1c567f" stroke="#000000"></path><path d="M212 919L217 866L183 871Z" fill="#005870" stroke="#000000"></path><path d="M103 46L0 114L140 107Z" fill="#684881" stroke="#000000"></path><path d="M140 107L0 114L102 175Z" fill="#435186" stroke="#000000"></path><path d="M0 172L0 114L-1 625Z" fill="#005870" stroke="#000000"></path><path d="M417 70L386 49L362 110Z" fill="#1c567f" stroke="#000000"></path><path d="M83 908L183 871L109 823Z" fill="#863c71" stroke="#000000"></path><path d="M247 0L185 122L257 101Z" fill="#435186" stroke="#000000"></path><path d="M377 0L357 26L386 49Z" fill="#9a3356" stroke="#000000"></path><path d="M386 49L357 26L362 110Z" fill="#005870" stroke="#000000"></path><path d="M545 354L540 112L540 161Z" fill="#78427a" stroke="#000000"></path><path d="M540 161L540 112L481 117Z" fill="#863c71" stroke="#000000"></path><path d="M454 0L412 0L417 70Z" fill="#9a3356" stroke="#000000"></path><path d="M412 0L377 0L386 49Z" fill="#1c567f" stroke="#000000"></path><path d="M445 903L384 849L411 960Z" fill="#075878" stroke="#000000"></path><path d="M103 46L3 85L0 114Z" fill="#9a3356" stroke="#000000"></path><path d="M0 876L83 908L77 802Z" fill="#005870" stroke="#000000"></path><path d="M456 891L540 844L470 789Z" fill="#863c71" stroke="#000000"></path><path d="M411 960L384 849L348 860Z" fill="#1c567f" stroke="#000000"></path><path d="M456 891L540 862L540 844Z" fill="#923764" stroke="#000000"></path><path d="M411 960L348 860L286 912Z" fill="#78427a" stroke="#000000"></path><path d="M286 0L247 0L257 101Z" fill="#9a3356" stroke="#000000"></path><path d="M357 26L286 0L257 101Z" fill="#2f5484" stroke="#000000"></path><path d="M0 811L0 876L77 802Z" fill="#564d85" stroke="#000000"></path><path d="M-1 625L0 876L0 811Z" fill="#863c71" stroke="#000000"></path><path d="M502 922L540 862L456 891Z" fill="#863c71" stroke="#000000"></path><path d="M540 844L540 862L551 772Z" fill="#435186" stroke="#000000"></path><path d="M186 960L240 960L212 919Z" fill="#075878" stroke="#000000"></path><path d="M212 919L240 960L286 912Z" fill="#075878" stroke="#000000"></path><path d="M240 960L273 960L286 912Z" fill="#005870" stroke="#000000"></path><path d="M247 0L145 0L185 122Z" fill="#684881" stroke="#000000"></path><path d="M103 46L49 0L3 85Z" fill="#923764" stroke="#000000"></path><path d="M273 960L285 960L286 912Z" fill="#2f5484" stroke="#000000"></path><path d="M412 0L386 49L417 70Z" fill="#435186" stroke="#000000"></path><path d="M357 26L377 0L286 0Z" fill="#005870" stroke="#000000"></path><path d="M99 963L186 960L83 908Z" fill="#78427a" stroke="#000000"></path><path d="M83 908L186 960L183 871Z" fill="#005870" stroke="#000000"></path><path d="M145 0L101 7L103 46Z" fill="#075878" stroke="#000000"></path><path d="M454 0L417 70L481 117Z" fill="#9a3356" stroke="#000000"></path><path d="M285 960L411 960L286 912Z" fill="#005870" stroke="#000000"></path><path d="M445 903L502 922L456 891Z" fill="#005870" stroke="#000000"></path><path d="M475 960L502 922L445 903Z" fill="#1c567f" stroke="#000000"></path><path d="M68 960L99 963L83 908Z" fill="#78427a" stroke="#000000"></path><path d="M186 960L99 963L240 960Z" fill="#78427a" stroke="#000000"></path><path d="M240 960L99 963L273 960Z" fill="#005870" stroke="#000000"></path><path d="M273 960L99 963L285 960Z" fill="#863c71" stroke="#000000"></path><path d="M285 960L99 963L411 960Z" fill="#684881" stroke="#000000"></path><path d="M540 43L454 0L481 117Z" fill="#78427a" stroke="#000000"></path><path d="M540 112L540 43L481 117Z" fill="#075878" stroke="#000000"></path><path d="M545 354L540 43L540 112Z" fill="#564d85" stroke="#000000"></path><path d="M145 0L49 0L101 7Z" fill="#863c71" stroke="#000000"></path><path d="M101 7L49 0L103 46Z" fill="#78427a" stroke="#000000"></path><path d="M0 943L68 960L83 908Z" fill="#863c71" stroke="#000000"></path><path d="M49 0L0 20L3 85Z" fill="#564d85" stroke="#000000"></path><path d="M3 85L0 20L0 114Z" fill="#9a3356" stroke="#000000"></path><path d="M0 114L0 20L-1 625Z" fill="#684881" stroke="#000000"></path><path d="M49 0L17 0L0 20Z" fill="#1c567f" stroke="#000000"></path><path d="M99 963L475 960L411 960Z" fill="#075878" stroke="#000000"></path><path d="M411 960L475 960L445 903Z" fill="#564d85" stroke="#000000"></path><path d="M-1 625L0 943L0 876Z" fill="#9a3356" stroke="#000000"></path><path d="M0 876L0 943L83 908Z" fill="#435186" stroke="#000000"></path><path d="M17 0L0 0L0 20Z" fill="#2f5484" stroke="#000000"></path><path d="M0 20L0 0L-1 625Z" fill="#9a3356" stroke="#000000"></path><path d="M99 963L505 960L475 960Z" fill="#684881" stroke="#000000"></path><path d="M475 960L505 960L502 922Z" fill="#923764" stroke="#000000"></path><path d="M502 922L540 960L540 862Z" fill="#1c567f" stroke="#000000"></path><path d="M68 960L0 960L99 963Z" fill="#2f5484" stroke="#000000"></path><path d="M0 943L0 960L68 960Z" fill="#564d85" stroke="#000000"></path><path d="M-1 625L0 960L0 943Z" fill="#9a3356" stroke="#000000"></path><path d="M545 354L540 0L540 43Z" fill="#923764" stroke="#000000"></path><path d="M540 43L540 0L454 0Z" fill="#005870" stroke="#000000"></path><path d="M551 772L540 0L545 354Z" fill="#075878" stroke="#000000"></path><path d="M99 963L540 960L505 960Z" fill="#1c567f" stroke="#000000"></path><path d="M505 960L540 960L502 922Z" fill="#005870" stroke="#000000"></path><path d="M540 862L540 960L551 772Z" fill="#78427a" stroke="#000000"></path></g></svg>