<svg id="visual" viewBox="0 0 540 960" width="540" height="960" xmlns="http://www.w3.org/2000/svg" xmlns:xlink="http://www.w3.org/1999/xlink" version="1.1"><path d="M0 347L42 347L42 279L83 279L83 260L125 260L125 212L166 212L166 87L208 87L208 443L249 443L249 212L291 212L291 356L332 356L332 289L374 289L374 116L415 116L415 443L457 443L457 203L498 203L498 308L540 308L540 308L540 0L540 0L498 0L498 0L457 0L457 0L415 0L415 0L374 0L374 0L332 0L332 0L291 0L291 0L249 0L249 0L208 0L208 0L166 0L166 0L125 0L125 0L83 0L83 0L42 0L42 0L0 0Z" fill="#9a3356"></path><path d="M0 423L42 423L42 395L83 395L83 404L125 404L125 404L166 404L166 308L208 308L208 587L249 587L249 423L291 423L291 462L332 462L332 404L374 404L374 356L415 356L415 539L457 539L457 395L498 395L498 414L540 414L540 510L540 306L540 306L498 306L498 201L457 201L457 441L415 441L415 114L374 114L374 287L332 287L332 354L291 354L291 210L249 210L249 441L208 441L208 85L166 85L166 210L125 210L125 258L83 258L83 277L42 277L42 345L0 345Z" fill="#863c71"></path><path d="M0 471L42 471L42 452L83 452L83 548L125 548L125 567L166 567L166 414L208 414L208 615L249 615L249 548L291 548L291 500L332 500L332 567L374 567L374 404L415 404L415 635L457 635L457 462L498 462L498 548L540 548L540 654L540 508L540 412L498 412L498 393L457 393L457 537L415 537L415 354L374 354L374 402L332 402L332 460L291 460L291 421L249 421L249 585L208 585L208 306L166 306L166 402L125 402L125 402L83 402L83 393L42 393L42 421L0 421Z" fill="#684881"></path><path d="M0 673L42 673L42 539L83 539L83 625L125 625L125 635L166 635L166 519L208 519L208 721L249 721L249 615L291 615L291 702L332 702L332 692L374 692L374 452L415 452L415 759L457 759L457 615L498 615L498 731L540 731L540 798L540 652L540 546L498 546L498 460L457 460L457 633L415 633L415 402L374 402L374 565L332 565L332 498L291 498L291 546L249 546L249 613L208 613L208 412L166 412L166 565L125 565L125 546L83 546L83 450L42 450L42 469L0 469Z" fill="#435186"></path><path d="M0 827L42 827L42 692L83 692L83 750L125 750L125 663L166 663L166 577L208 577L208 759L249 759L249 759L291 759L291 827L332 827L332 817L374 817L374 606L415 606L415 884L457 884L457 711L498 711L498 836L540 836L540 865L540 796L540 729L498 729L498 613L457 613L457 757L415 757L415 450L374 450L374 690L332 690L332 700L291 700L291 613L249 613L249 719L208 719L208 517L166 517L166 633L125 633L125 623L83 623L83 537L42 537L42 671L0 671Z" fill="#1c567f"></path><path d="M0 961L42 961L42 961L83 961L83 961L125 961L125 961L166 961L166 961L208 961L208 961L249 961L249 961L291 961L291 961L332 961L332 961L374 961L374 961L415 961L415 961L457 961L457 961L498 961L498 961L540 961L540 961L540 863L540 834L498 834L498 709L457 709L457 882L415 882L415 604L374 604L374 815L332 815L332 825L291 825L291 757L249 757L249 757L208 757L208 575L166 575L166 661L125 661L125 748L83 748L83 690L42 690L42 825L0 825Z" fill="#005870"></path></svg>