<svg id="visual" viewBox="0 0 540 960" width="540" height="960" xmlns="http://www.w3.org/2000/svg" xmlns:xlink="http://www.w3.org/1999/xlink" version="1.1"><path d="M0 87L42 87L42 164L83 164L83 30L125 30L125 135L166 135L166 107L208 107L208 87L249 87L249 49L291 49L291 68L332 68L332 49L374 49L374 87L415 87L415 116L457 116L457 116L498 116L498 68L540 68L540 145L540 0L540 0L498 0L498 0L457 0L457 0L415 0L415 0L374 0L374 0L332 0L332 0L291 0L291 0L249 0L249 0L208 0L208 0L166 0L166 0L125 0L125 0L83 0L83 0L42 0L42 0L0 0Z" fill="#9a3356"></path><path d="M0 193L42 193L42 251L83 251L83 155L125 155L125 183L166 183L166 155L208 155L208 203L249 203L249 155L291 155L291 107L332 107L332 174L374 174L374 174L415 174L415 145L457 145L457 193L498 193L498 116L540 116L540 203L540 143L540 66L498 66L498 114L457 114L457 114L415 114L415 85L374 85L374 47L332 47L332 66L291 66L291 47L249 47L249 85L208 85L208 105L166 105L166 133L125 133L125 28L83 28L83 162L42 162L42 85L0 85Z" fill="#863c71"></path><path d="M0 327L42 327L42 452L83 452L83 654L125 654L125 308L166 308L166 596L208 596L208 366L249 366L249 327L291 327L291 596L332 596L332 558L374 558L374 577L415 577L415 385L457 385L457 289L498 289L498 395L540 395L540 606L540 201L540 114L498 114L498 191L457 191L457 143L415 143L415 172L374 172L374 172L332 172L332 105L291 105L291 153L249 153L249 201L208 201L208 153L166 153L166 181L125 181L125 153L83 153L83 249L42 249L42 191L0 191Z" fill="#684881"></path><path d="M0 654L42 654L42 673L83 673L83 836L125 836L125 654L166 654L166 788L208 788L208 625L249 625L249 692L291 692L291 759L332 759L332 654L374 654L374 769L415 769L415 654L457 654L457 644L498 644L498 759L540 759L540 769L540 604L540 393L498 393L498 287L457 287L457 383L415 383L415 575L374 575L374 556L332 556L332 594L291 594L291 325L249 325L249 364L208 364L208 594L166 594L166 306L125 306L125 652L83 652L83 450L42 450L42 325L0 325Z" fill="#435186"></path><path d="M0 836L42 836L42 827L83 827L83 913L125 913L125 884L166 884L166 884L208 884L208 807L249 807L249 759L291 759L291 875L332 875L332 865L374 865L374 875L415 875L415 759L457 759L457 769L498 769L498 827L540 827L540 884L540 767L540 757L498 757L498 642L457 642L457 652L415 652L415 767L374 767L374 652L332 652L332 757L291 757L291 690L249 690L249 623L208 623L208 786L166 786L166 652L125 652L125 834L83 834L83 671L42 671L42 652L0 652Z" fill="#1c567f"></path><path d="M0 961L42 961L42 961L83 961L83 961L125 961L125 961L166 961L166 961L208 961L208 961L249 961L249 961L291 961L291 961L332 961L332 961L374 961L374 961L415 961L415 961L457 961L457 961L498 961L498 961L540 961L540 961L540 882L540 825L498 825L498 767L457 767L457 757L415 757L415 873L374 873L374 863L332 863L332 873L291 873L291 757L249 757L249 805L208 805L208 882L166 882L166 882L125 882L125 911L83 911L83 825L42 825L42 834L0 834Z" fill="#005870"></path></svg>