<svg id="visual" viewBox="0 0 540 960" width="540" height="960" xmlns="http://www.w3.org/2000/svg" xmlns:xlink="http://www.w3.org/1999/xlink" version="1.1"><path d="M0 126L42 126L42 97L83 97L83 39L125 39L125 59L166 59L166 30L208 30L208 126L249 126L249 39L291 39L291 155L332 155L332 97L374 97L374 49L415 49L415 30L457 30L457 126L498 126L498 49L540 49L540 30L540 0L540 0L498 0L498 0L457 0L457 0L415 0L415 0L374 0L374 0L332 0L332 0L291 0L291 0L249 0L249 0L208 0L208 0L166 0L166 0L125 0L125 0L83 0L83 0L42 0L42 0L0 0Z" fill="#9a3356"></path><path d="M0 471L42 471L42 558L83 558L83 279L125 279L125 327L166 327L166 135L208 135L208 347L249 347L249 155L291 155L291 366L332 366L332 423L374 423L374 193L415 193L415 347L457 347L457 471L498 471L498 174L540 174L540 395L540 28L540 47L498 47L498 124L457 124L457 28L415 28L415 47L374 47L374 95L332 95L332 153L291 153L291 37L249 37L249 124L208 124L208 28L166 28L166 57L125 57L125 37L83 37L83 95L42 95L42 124L0 124Z" fill="#863c71"></path><path d="M0 567L42 567L42 654L83 654L83 519L125 519L125 519L166 519L166 577L208 577L208 615L249 615L249 663L291 663L291 615L332 615L332 673L374 673L374 644L415 644L415 625L457 625L457 702L498 702L498 548L540 548L540 558L540 393L540 172L498 172L498 469L457 469L457 345L415 345L415 191L374 191L374 421L332 421L332 364L291 364L291 153L249 153L249 345L208 345L208 133L166 133L166 325L125 325L125 277L83 277L83 556L42 556L42 469L0 469Z" fill="#684881"></path><path d="M0 731L42 731L42 807L83 807L83 606L125 606L125 702L166 702L166 721L208 721L208 740L249 740L249 702L291 702L291 711L332 711L332 779L374 779L374 827L415 827L415 721L457 721L457 807L498 807L498 692L540 692L540 615L540 556L540 546L498 546L498 700L457 700L457 623L415 623L415 642L374 642L374 671L332 671L332 613L291 613L291 661L249 661L249 613L208 613L208 575L166 575L166 517L125 517L125 517L83 517L83 652L42 652L42 565L0 565Z" fill="#435186"></path><path d="M0 836L42 836L42 913L83 913L83 644L125 644L125 846L166 846L166 817L208 817L208 846L249 846L249 855L291 855L291 836L332 836L332 903L374 903L374 923L415 923L415 836L457 836L457 913L498 913L498 721L540 721L540 702L540 613L540 690L498 690L498 805L457 805L457 719L415 719L415 825L374 825L374 777L332 777L332 709L291 709L291 700L249 700L249 738L208 738L208 719L166 719L166 700L125 700L125 604L83 604L83 805L42 805L42 729L0 729Z" fill="#1c567f"></path><path d="M0 961L42 961L42 961L83 961L83 961L125 961L125 961L166 961L166 961L208 961L208 961L249 961L249 961L291 961L291 961L332 961L332 961L374 961L374 961L415 961L415 961L457 961L457 961L498 961L498 961L540 961L540 961L540 700L540 719L498 719L498 911L457 911L457 834L415 834L415 921L374 921L374 901L332 901L332 834L291 834L291 853L249 853L249 844L208 844L208 815L166 815L166 844L125 844L125 642L83 642L83 911L42 911L42 834L0 834Z" fill="#005870"></path></svg>