<svg id="visual" viewBox="0 0 540 960" width="540" height="960" xmlns="http://www.w3.org/2000/svg" xmlns:xlink="http://www.w3.org/1999/xlink" version="1.1"><g stroke-width="1" stroke-linejoin="bevel"><path d="M297 455L364 430L324 411Z" fill="#684881" stroke="#000000"></path><path d="M371 519L368 429L364 430Z" fill="#435186" stroke="#000000"></path><path d="M364 430L351 408L324 411Z" fill="#9a3356" stroke="#000000"></path><path d="M368 429L351 408L364 430Z" fill="#9a3356" stroke="#000000"></path><path d="M371 519L406 422L368 429Z" fill="#863c71" stroke="#000000"></path><path d="M368 429L406 422L351 408Z" fill="#923764" stroke="#000000"></path><path d="M297 455L371 519L364 430Z" fill="#9a3356" stroke="#000000"></path><path d="M406 422L359 366L351 408Z" fill="#1c567f" stroke="#000000"></path><path d="M351 408L359 366L324 411Z" fill="#863c71" stroke="#000000"></path><path d="M359 366L263 393L324 411Z" fill="#075878" stroke="#000000"></path><path d="M324 411L263 393L297 455Z" fill="#684881" stroke="#000000"></path><path d="M406 422L397 352L359 366Z" fill="#1c567f" stroke="#000000"></path><path d="M248 329L242 360L263 393Z" fill="#863c71" stroke="#000000"></path><path d="M263 393L220 480L297 455Z" fill="#435186" stroke="#000000"></path><path d="M297 455L247 547L371 519Z" fill="#564d85" stroke="#000000"></path><path d="M248 329L263 393L359 366Z" fill="#923764" stroke="#000000"></path><path d="M263 393L202 368L220 480Z" fill="#923764" stroke="#000000"></path><path d="M247 547L382 560L371 519Z" fill="#435186" stroke="#000000"></path><path d="M371 519L456 531L406 422Z" fill="#923764" stroke="#000000"></path><path d="M220 480L247 547L297 455Z" fill="#2f5484" stroke="#000000"></path><path d="M220 480L207 501L247 547Z" fill="#684881" stroke="#000000"></path><path d="M137 480L207 501L220 480Z" fill="#923764" stroke="#000000"></path><path d="M247 547L383 580L382 560Z" fill="#863c71" stroke="#000000"></path><path d="M382 560L456 531L371 519Z" fill="#78427a" stroke="#000000"></path><path d="M397 352L374 309L359 366Z" fill="#78427a" stroke="#000000"></path><path d="M374 309L248 329L359 366Z" fill="#684881" stroke="#000000"></path><path d="M242 360L202 368L263 393Z" fill="#2f5484" stroke="#000000"></path><path d="M443 563L456 531L382 560Z" fill="#863c71" stroke="#000000"></path><path d="M501 358L423 321L397 352Z" fill="#923764" stroke="#000000"></path><path d="M204 322L202 368L242 360Z" fill="#075878" stroke="#000000"></path><path d="M248 329L240 324L242 360Z" fill="#1c567f" stroke="#000000"></path><path d="M248 317L240 324L248 329Z" fill="#78427a" stroke="#000000"></path><path d="M374 309L248 317L248 329Z" fill="#684881" stroke="#000000"></path><path d="M397 352L423 321L374 309Z" fill="#684881" stroke="#000000"></path><path d="M501 358L397 352L406 422Z" fill="#78427a" stroke="#000000"></path><path d="M181 347L190 370L202 368Z" fill="#2f5484" stroke="#000000"></path><path d="M202 368L190 370L220 480Z" fill="#2f5484" stroke="#000000"></path><path d="M383 580L443 563L382 560Z" fill="#78427a" stroke="#000000"></path><path d="M288 646L384 603L383 580Z" fill="#2f5484" stroke="#000000"></path><path d="M383 580L384 603L443 563Z" fill="#005870" stroke="#000000"></path><path d="M201 279L204 322L240 324Z" fill="#075878" stroke="#000000"></path><path d="M240 324L204 322L242 360Z" fill="#863c71" stroke="#000000"></path><path d="M204 322L181 347L202 368Z" fill="#684881" stroke="#000000"></path><path d="M190 370L137 480L220 480Z" fill="#684881" stroke="#000000"></path><path d="M357 241L342 264L374 309Z" fill="#435186" stroke="#000000"></path><path d="M374 309L342 264L248 317Z" fill="#923764" stroke="#000000"></path><path d="M248 317L201 279L240 324Z" fill="#1c567f" stroke="#000000"></path><path d="M132 539L232 608L247 547Z" fill="#2f5484" stroke="#000000"></path><path d="M247 547L288 646L383 580Z" fill="#78427a" stroke="#000000"></path><path d="M540 438L501 358L406 422Z" fill="#78427a" stroke="#000000"></path><path d="M397 212L357 241L374 309Z" fill="#075878" stroke="#000000"></path><path d="M99 470L137 480L190 370Z" fill="#923764" stroke="#000000"></path><path d="M207 501L132 539L247 547Z" fill="#435186" stroke="#000000"></path><path d="M347 661L415 629L384 603Z" fill="#78427a" stroke="#000000"></path><path d="M384 603L415 629L443 563Z" fill="#9a3356" stroke="#000000"></path><path d="M232 608L288 646L247 547Z" fill="#2f5484" stroke="#000000"></path><path d="M352 208L357 241L397 212Z" fill="#2f5484" stroke="#000000"></path><path d="M247 175L201 279L248 317Z" fill="#2f5484" stroke="#000000"></path><path d="M540 473L406 422L456 531Z" fill="#564d85" stroke="#000000"></path><path d="M540 473L540 438L406 422Z" fill="#684881" stroke="#000000"></path><path d="M509 557L456 531L443 563Z" fill="#075878" stroke="#000000"></path><path d="M458 621L509 557L443 563Z" fill="#564d85" stroke="#000000"></path><path d="M540 531L540 473L456 531Z" fill="#1c567f" stroke="#000000"></path><path d="M204 322L201 279L181 347Z" fill="#1c567f" stroke="#000000"></path><path d="M99 470L123 505L137 480Z" fill="#923764" stroke="#000000"></path><path d="M186 234L201 279L247 175Z" fill="#005870" stroke="#000000"></path><path d="M288 646L347 661L384 603Z" fill="#2f5484" stroke="#000000"></path><path d="M490 625L458 621L464 733Z" fill="#684881" stroke="#000000"></path><path d="M415 629L458 621L443 563Z" fill="#435186" stroke="#000000"></path><path d="M540 473L545 409L540 438Z" fill="#9a3356" stroke="#000000"></path><path d="M540 438L545 409L501 358Z" fill="#684881" stroke="#000000"></path><path d="M232 608L261 663L288 646Z" fill="#005870" stroke="#000000"></path><path d="M288 646L261 663L347 661Z" fill="#684881" stroke="#000000"></path><path d="M132 539L220 632L232 608Z" fill="#9a3356" stroke="#000000"></path><path d="M99 470L190 370L49 395Z" fill="#684881" stroke="#000000"></path><path d="M137 480L132 539L207 501Z" fill="#2f5484" stroke="#000000"></path><path d="M123 505L132 539L137 480Z" fill="#9a3356" stroke="#000000"></path><path d="M540 584L540 531L509 557Z" fill="#1c567f" stroke="#000000"></path><path d="M509 557L540 531L456 531Z" fill="#923764" stroke="#000000"></path><path d="M540 473L550 385L545 409Z" fill="#075878" stroke="#000000"></path><path d="M540 531L550 385L540 473Z" fill="#863c71" stroke="#000000"></path><path d="M545 409L550 385L501 358Z" fill="#435186" stroke="#000000"></path><path d="M501 358L478 257L423 321Z" fill="#075878" stroke="#000000"></path><path d="M235 659L261 663L232 608Z" fill="#78427a" stroke="#000000"></path><path d="M123 505L121 536L132 539Z" fill="#863c71" stroke="#000000"></path><path d="M188 669L221 653L220 632Z" fill="#863c71" stroke="#000000"></path><path d="M550 385L540 346L501 358Z" fill="#564d85" stroke="#000000"></path><path d="M221 653L235 659L220 632Z" fill="#1c567f" stroke="#000000"></path><path d="M220 632L235 659L232 608Z" fill="#1c567f" stroke="#000000"></path><path d="M79 336L190 370L181 347Z" fill="#863c71" stroke="#000000"></path><path d="M123 505L75 520L121 536Z" fill="#564d85" stroke="#000000"></path><path d="M188 669L220 632L132 539Z" fill="#2f5484" stroke="#000000"></path><path d="M458 621L490 625L509 557Z" fill="#923764" stroke="#000000"></path><path d="M464 733L458 621L415 629Z" fill="#005870" stroke="#000000"></path><path d="M397 212L374 309L423 321Z" fill="#075878" stroke="#000000"></path><path d="M357 241L352 208L342 264Z" fill="#564d85" stroke="#000000"></path><path d="M540 346L478 257L501 358Z" fill="#075878" stroke="#000000"></path><path d="M478 257L397 212L423 321Z" fill="#9a3356" stroke="#000000"></path><path d="M490 625L540 584L509 557Z" fill="#2f5484" stroke="#000000"></path><path d="M540 531L540 584L550 385Z" fill="#435186" stroke="#000000"></path><path d="M297 178L248 317L342 264Z" fill="#075878" stroke="#000000"></path><path d="M98 265L79 336L181 347Z" fill="#923764" stroke="#000000"></path><path d="M478 257L468 205L397 212Z" fill="#005870" stroke="#000000"></path><path d="M540 246L487 239L478 257Z" fill="#564d85" stroke="#000000"></path><path d="M126 679L188 669L132 539Z" fill="#78427a" stroke="#000000"></path><path d="M221 653L215 689L235 659Z" fill="#863c71" stroke="#000000"></path><path d="M235 659L215 689L261 663Z" fill="#9a3356" stroke="#000000"></path><path d="M261 663L381 720L347 661Z" fill="#9a3356" stroke="#000000"></path><path d="M10 529L75 520L0 490Z" fill="#9a3356" stroke="#000000"></path><path d="M99 470L75 520L123 505Z" fill="#2f5484" stroke="#000000"></path><path d="M121 536L70 587L132 539Z" fill="#1c567f" stroke="#000000"></path><path d="M188 669L215 689L221 653Z" fill="#78427a" stroke="#000000"></path><path d="M385 155L297 178L352 208Z" fill="#923764" stroke="#000000"></path><path d="M352 208L297 178L342 264Z" fill="#435186" stroke="#000000"></path><path d="M385 155L352 208L397 212Z" fill="#435186" stroke="#000000"></path><path d="M98 265L181 347L201 279Z" fill="#435186" stroke="#000000"></path><path d="M487 239L468 205L478 257Z" fill="#9a3356" stroke="#000000"></path><path d="M356 813L381 720L251 812Z" fill="#2f5484" stroke="#000000"></path><path d="M347 661L381 720L415 629Z" fill="#923764" stroke="#000000"></path><path d="M490 625L540 657L540 584Z" fill="#075878" stroke="#000000"></path><path d="M297 178L247 175L248 317Z" fill="#564d85" stroke="#000000"></path><path d="M186 234L98 265L201 279Z" fill="#923764" stroke="#000000"></path><path d="M79 336L49 395L190 370Z" fill="#564d85" stroke="#000000"></path><path d="M550 385L540 246L540 346Z" fill="#435186" stroke="#000000"></path><path d="M540 346L540 246L478 257Z" fill="#863c71" stroke="#000000"></path><path d="M487 239L540 202L468 205Z" fill="#435186" stroke="#000000"></path><path d="M104 239L98 265L186 234Z" fill="#075878" stroke="#000000"></path><path d="M79 336L0 346L49 395Z" fill="#435186" stroke="#000000"></path><path d="M425 142L397 212L468 205Z" fill="#564d85" stroke="#000000"></path><path d="M425 142L385 155L397 212Z" fill="#9a3356" stroke="#000000"></path><path d="M297 178L254 66L247 175Z" fill="#005870" stroke="#000000"></path><path d="M540 669L540 657L490 625Z" fill="#075878" stroke="#000000"></path><path d="M540 584L540 657L550 385Z" fill="#78427a" stroke="#000000"></path><path d="M37 588L70 587L75 520Z" fill="#78427a" stroke="#000000"></path><path d="M75 520L70 587L121 536Z" fill="#005870" stroke="#000000"></path><path d="M188 669L169 709L215 689Z" fill="#2f5484" stroke="#000000"></path><path d="M98 265L78 288L79 336Z" fill="#9a3356" stroke="#000000"></path><path d="M464 733L540 669L490 625Z" fill="#78427a" stroke="#000000"></path><path d="M540 657L540 669L550 385Z" fill="#923764" stroke="#000000"></path><path d="M111 211L104 239L186 234Z" fill="#863c71" stroke="#000000"></path><path d="M98 265L94 239L78 288Z" fill="#435186" stroke="#000000"></path><path d="M126 679L169 709L188 669Z" fill="#005870" stroke="#000000"></path><path d="M251 812L381 720L261 663Z" fill="#684881" stroke="#000000"></path><path d="M70 587L126 679L132 539Z" fill="#9a3356" stroke="#000000"></path><path d="M111 211L94 239L104 239Z" fill="#005870" stroke="#000000"></path><path d="M104 239L94 239L98 265Z" fill="#2f5484" stroke="#000000"></path><path d="M461 755L464 733L418 781Z" fill="#005870" stroke="#000000"></path><path d="M381 720L464 733L415 629Z" fill="#863c71" stroke="#000000"></path><path d="M520 150L425 142L468 205Z" fill="#075878" stroke="#000000"></path><path d="M289 48L254 66L297 178Z" fill="#564d85" stroke="#000000"></path><path d="M550 385L540 202L540 246Z" fill="#005870" stroke="#000000"></path><path d="M540 246L540 202L487 239Z" fill="#9a3356" stroke="#000000"></path><path d="M126 110L111 211L186 234Z" fill="#005870" stroke="#000000"></path><path d="M550 385L540 194L540 202Z" fill="#684881" stroke="#000000"></path><path d="M540 202L540 194L468 205Z" fill="#923764" stroke="#000000"></path><path d="M10 529L37 588L75 520Z" fill="#564d85" stroke="#000000"></path><path d="M70 587L0 635L126 679Z" fill="#1c567f" stroke="#000000"></path><path d="M0 328L36 304L0 178Z" fill="#684881" stroke="#000000"></path><path d="M94 239L36 304L78 288Z" fill="#564d85" stroke="#000000"></path><path d="M78 288L36 304L79 336Z" fill="#075878" stroke="#000000"></path><path d="M0 486L75 520L99 470Z" fill="#78427a" stroke="#000000"></path><path d="M0 486L99 470L49 395Z" fill="#2f5484" stroke="#000000"></path><path d="M0 346L0 486L49 395Z" fill="#684881" stroke="#000000"></path><path d="M0 486L0 490L75 520Z" fill="#1c567f" stroke="#000000"></path><path d="M418 781L464 733L381 720Z" fill="#9a3356" stroke="#000000"></path><path d="M464 733L540 777L540 669Z" fill="#78427a" stroke="#000000"></path><path d="M126 679L177 752L169 709Z" fill="#005870" stroke="#000000"></path><path d="M169 709L177 752L215 689Z" fill="#2f5484" stroke="#000000"></path><path d="M168 786L177 752L68 803Z" fill="#005870" stroke="#000000"></path><path d="M0 490L0 542L10 529Z" fill="#075878" stroke="#000000"></path><path d="M10 529L0 542L37 588Z" fill="#2f5484" stroke="#000000"></path><path d="M356 813L418 781L381 720Z" fill="#78427a" stroke="#000000"></path><path d="M0 328L0 346L36 304Z" fill="#435186" stroke="#000000"></path><path d="M36 304L0 346L79 336Z" fill="#923764" stroke="#000000"></path><path d="M540 194L520 150L468 205Z" fill="#863c71" stroke="#000000"></path><path d="M0 178L36 304L94 239Z" fill="#684881" stroke="#000000"></path><path d="M380 854L437 786L418 781Z" fill="#075878" stroke="#000000"></path><path d="M418 781L437 786L461 755Z" fill="#863c71" stroke="#000000"></path><path d="M461 755L540 777L464 733Z" fill="#78427a" stroke="#000000"></path><path d="M251 812L261 663L215 689Z" fill="#075878" stroke="#000000"></path><path d="M177 752L251 812L215 689Z" fill="#684881" stroke="#000000"></path><path d="M540 194L540 134L520 150Z" fill="#075878" stroke="#000000"></path><path d="M520 150L485 102L425 142Z" fill="#863c71" stroke="#000000"></path><path d="M546 46L540 134L540 194Z" fill="#684881" stroke="#000000"></path><path d="M517 94L485 102L520 150Z" fill="#005870" stroke="#000000"></path><path d="M337 58L297 178L385 155Z" fill="#863c71" stroke="#000000"></path><path d="M247 175L126 110L186 234Z" fill="#435186" stroke="#000000"></path><path d="M546 46L540 132L540 134Z" fill="#923764" stroke="#000000"></path><path d="M540 134L540 132L520 150Z" fill="#005870" stroke="#000000"></path><path d="M45 718L177 752L126 679Z" fill="#564d85" stroke="#000000"></path><path d="M177 752L212 823L251 812Z" fill="#435186" stroke="#000000"></path><path d="M0 635L70 587L37 588Z" fill="#684881" stroke="#000000"></path><path d="M0 542L0 635L37 588Z" fill="#923764" stroke="#000000"></path><path d="M380 854L496 796L437 786Z" fill="#2f5484" stroke="#000000"></path><path d="M437 786L496 796L461 755Z" fill="#863c71" stroke="#000000"></path><path d="M337 58L385 155L425 142Z" fill="#684881" stroke="#000000"></path><path d="M384 0L337 58L425 142Z" fill="#435186" stroke="#000000"></path><path d="M496 796L540 777L461 755Z" fill="#2f5484" stroke="#000000"></path><path d="M540 669L540 777L550 385Z" fill="#684881" stroke="#000000"></path><path d="M254 66L126 110L247 175Z" fill="#075878" stroke="#000000"></path><path d="M111 211L0 178L94 239Z" fill="#923764" stroke="#000000"></path><path d="M0 635L45 718L126 679Z" fill="#78427a" stroke="#000000"></path><path d="M175 839L212 823L168 786Z" fill="#435186" stroke="#000000"></path><path d="M168 786L212 823L177 752Z" fill="#1c567f" stroke="#000000"></path><path d="M251 812L256 861L356 813Z" fill="#863c71" stroke="#000000"></path><path d="M540 132L517 94L520 150Z" fill="#684881" stroke="#000000"></path><path d="M384 0L349 6L337 58Z" fill="#075878" stroke="#000000"></path><path d="M212 823L245 835L251 812Z" fill="#923764" stroke="#000000"></path><path d="M356 813L380 854L418 781Z" fill="#564d85" stroke="#000000"></path><path d="M341 0L289 48L337 58Z" fill="#1c567f" stroke="#000000"></path><path d="M337 58L289 48L297 178Z" fill="#684881" stroke="#000000"></path><path d="M166 49L136 77L126 110Z" fill="#923764" stroke="#000000"></path><path d="M0 635L0 685L45 718Z" fill="#005870" stroke="#000000"></path><path d="M359 899L380 854L356 813Z" fill="#564d85" stroke="#000000"></path><path d="M496 796L540 836L540 777Z" fill="#564d85" stroke="#000000"></path><path d="M79 121L111 211L126 110Z" fill="#075878" stroke="#000000"></path><path d="M79 121L67 132L111 211Z" fill="#78427a" stroke="#000000"></path><path d="M136 77L79 121L126 110Z" fill="#1c567f" stroke="#000000"></path><path d="M166 49L126 110L254 66Z" fill="#863c71" stroke="#000000"></path><path d="M212 823L256 861L245 835Z" fill="#075878" stroke="#000000"></path><path d="M245 835L256 861L251 812Z" fill="#075878" stroke="#000000"></path><path d="M175 839L256 861L212 823Z" fill="#1c567f" stroke="#000000"></path><path d="M165 840L175 839L168 786Z" fill="#005870" stroke="#000000"></path><path d="M165 840L168 786L68 803Z" fill="#1c567f" stroke="#000000"></path><path d="M0 175L67 132L0 113Z" fill="#1c567f" stroke="#000000"></path><path d="M0 175L0 178L67 132Z" fill="#2f5484" stroke="#000000"></path><path d="M67 132L0 178L111 211Z" fill="#684881" stroke="#000000"></path><path d="M68 803L177 752L45 718Z" fill="#923764" stroke="#000000"></path><path d="M225 929L260 897L256 861Z" fill="#9a3356" stroke="#000000"></path><path d="M0 113L67 132L0 96Z" fill="#9a3356" stroke="#000000"></path><path d="M227 0L166 49L254 66Z" fill="#923764" stroke="#000000"></path><path d="M0 96L67 132L79 121Z" fill="#564d85" stroke="#000000"></path><path d="M349 0L349 6L384 0Z" fill="#684881" stroke="#000000"></path><path d="M289 48L280 0L254 66Z" fill="#005870" stroke="#000000"></path><path d="M524 922L540 836L496 796Z" fill="#863c71" stroke="#000000"></path><path d="M540 777L540 836L550 385Z" fill="#78427a" stroke="#000000"></path><path d="M0 774L68 803L45 718Z" fill="#9a3356" stroke="#000000"></path><path d="M349 0L341 0L349 6Z" fill="#075878" stroke="#000000"></path><path d="M349 6L341 0L337 58Z" fill="#2f5484" stroke="#000000"></path><path d="M384 0L425 142L485 102Z" fill="#923764" stroke="#000000"></path><path d="M341 0L280 0L289 48Z" fill="#005870" stroke="#000000"></path><path d="M532 0L384 0L485 102Z" fill="#435186" stroke="#000000"></path><path d="M256 861L359 899L356 813Z" fill="#684881" stroke="#000000"></path><path d="M380 854L524 922L496 796Z" fill="#863c71" stroke="#000000"></path><path d="M260 897L359 899L256 861Z" fill="#005870" stroke="#000000"></path><path d="M540 132L546 46L517 94Z" fill="#1c567f" stroke="#000000"></path><path d="M517 94L546 46L485 102Z" fill="#005870" stroke="#000000"></path><path d="M550 385L546 46L540 194Z" fill="#923764" stroke="#000000"></path><path d="M225 929L256 861L175 839Z" fill="#1c567f" stroke="#000000"></path><path d="M225 929L175 839L165 840Z" fill="#863c71" stroke="#000000"></path><path d="M280 0L227 0L254 66Z" fill="#435186" stroke="#000000"></path><path d="M166 49L153 18L136 77Z" fill="#923764" stroke="#000000"></path><path d="M188 0L153 18L166 49Z" fill="#78427a" stroke="#000000"></path><path d="M0 685L0 774L45 718Z" fill="#2f5484" stroke="#000000"></path><path d="M68 803L90 895L165 840Z" fill="#78427a" stroke="#000000"></path><path d="M227 0L188 0L166 49Z" fill="#2f5484" stroke="#000000"></path><path d="M0 96L79 121L80 0Z" fill="#9a3356" stroke="#000000"></path><path d="M0 113L-6 119L0 175Z" fill="#2f5484" stroke="#000000"></path><path d="M0 175L-6 119L0 178Z" fill="#435186" stroke="#000000"></path><path d="M0 178L-6 119L0 328Z" fill="#78427a" stroke="#000000"></path><path d="M0 328L-6 119L0 346Z" fill="#2f5484" stroke="#000000"></path><path d="M0 346L-6 119L0 486Z" fill="#684881" stroke="#000000"></path><path d="M0 486L-6 119L0 490Z" fill="#564d85" stroke="#000000"></path><path d="M0 490L-6 119L0 542Z" fill="#923764" stroke="#000000"></path><path d="M0 542L-4 960L0 635Z" fill="#9a3356" stroke="#000000"></path><path d="M0 635L-4 960L0 685Z" fill="#863c71" stroke="#000000"></path><path d="M0 685L-4 960L0 774Z" fill="#863c71" stroke="#000000"></path><path d="M188 0L190 -13L153 18Z" fill="#2f5484" stroke="#000000"></path><path d="M80 0L79 121L136 77Z" fill="#863c71" stroke="#000000"></path><path d="M227 0L190 -13L188 0Z" fill="#9a3356" stroke="#000000"></path><path d="M280 0L190 -13L227 0Z" fill="#435186" stroke="#000000"></path><path d="M341 0L190 -13L280 0Z" fill="#863c71" stroke="#000000"></path><path d="M349 0L190 -13L341 0Z" fill="#005870" stroke="#000000"></path><path d="M384 0L190 -13L349 0Z" fill="#863c71" stroke="#000000"></path><path d="M80 0L136 77L153 18Z" fill="#564d85" stroke="#000000"></path><path d="M0 113L0 96L-6 119Z" fill="#863c71" stroke="#000000"></path><path d="M0 803L44 838L68 803Z" fill="#564d85" stroke="#000000"></path><path d="M-4 960L0 803L0 774Z" fill="#564d85" stroke="#000000"></path><path d="M0 774L0 803L68 803Z" fill="#9a3356" stroke="#000000"></path><path d="M546 46L532 0L485 102Z" fill="#78427a" stroke="#000000"></path><path d="M384 0L532 0L190 -13Z" fill="#075878" stroke="#000000"></path><path d="M546 46L540 0L532 0Z" fill="#78427a" stroke="#000000"></path><path d="M532 0L540 0L190 -13Z" fill="#2f5484" stroke="#000000"></path><path d="M199 960L225 929L153 960Z" fill="#2f5484" stroke="#000000"></path><path d="M260 897L353 960L359 899Z" fill="#564d85" stroke="#000000"></path><path d="M45 872L90 895L44 838Z" fill="#863c71" stroke="#000000"></path><path d="M44 838L90 895L68 803Z" fill="#075878" stroke="#000000"></path><path d="M190 -13L80 0L153 18Z" fill="#863c71" stroke="#000000"></path><path d="M379 960L524 922L380 854Z" fill="#564d85" stroke="#000000"></path><path d="M379 960L380 854L359 899Z" fill="#075878" stroke="#000000"></path><path d="M0 848L45 872L44 838Z" fill="#1c567f" stroke="#000000"></path><path d="M228 960L353 960L260 897Z" fill="#923764" stroke="#000000"></path><path d="M353 960L355 960L359 899Z" fill="#1c567f" stroke="#000000"></path><path d="M355 960L361 960L359 899Z" fill="#005870" stroke="#000000"></path><path d="M361 960L379 960L359 899Z" fill="#863c71" stroke="#000000"></path><path d="M-4 960L0 848L0 803Z" fill="#435186" stroke="#000000"></path><path d="M0 803L0 848L44 838Z" fill="#863c71" stroke="#000000"></path><path d="M355 960L355 968L361 960Z" fill="#684881" stroke="#000000"></path><path d="M361 960L355 968L379 960Z" fill="#075878" stroke="#000000"></path><path d="M540 960L540 958L524 922Z" fill="#9a3356" stroke="#000000"></path><path d="M353 960L355 968L355 960Z" fill="#78427a" stroke="#000000"></path><path d="M228 960L355 968L353 960Z" fill="#78427a" stroke="#000000"></path><path d="M228 960L260 897L225 929Z" fill="#1c567f" stroke="#000000"></path><path d="M199 960L228 960L225 929Z" fill="#78427a" stroke="#000000"></path><path d="M135 952L165 840L90 895Z" fill="#923764" stroke="#000000"></path><path d="M153 960L225 929L165 840Z" fill="#863c71" stroke="#000000"></path><path d="M228 960L199 960L355 968Z" fill="#923764" stroke="#000000"></path><path d="M0 960L90 895L45 872Z" fill="#2f5484" stroke="#000000"></path><path d="M-4 960L0 875L0 848Z" fill="#1c567f" stroke="#000000"></path><path d="M0 848L0 875L45 872Z" fill="#78427a" stroke="#000000"></path><path d="M0 960L135 952L90 895Z" fill="#435186" stroke="#000000"></path><path d="M135 952L153 960L165 840Z" fill="#923764" stroke="#000000"></path><path d="M199 960L153 960L355 968Z" fill="#9a3356" stroke="#000000"></path><path d="M540 960L524 922L379 960Z" fill="#435186" stroke="#000000"></path><path d="M524 922L540 958L540 836Z" fill="#2f5484" stroke="#000000"></path><path d="M540 836L541 960L550 385Z" fill="#684881" stroke="#000000"></path><path d="M355 968L540 960L379 960Z" fill="#684881" stroke="#000000"></path><path d="M540 958L541 960L540 836Z" fill="#005870" stroke="#000000"></path><path d="M355 968L541 960L540 960Z" fill="#78427a" stroke="#000000"></path><path d="M540 960L541 960L540 958Z" fill="#005870" stroke="#000000"></path><path d="M190 -13L0 0L80 0Z" fill="#1c567f" stroke="#000000"></path><path d="M80 0L0 0L0 96Z" fill="#863c71" stroke="#000000"></path><path d="M0 96L0 0L-6 119Z" fill="#684881" stroke="#000000"></path><path d="M0 875L0 960L45 872Z" fill="#564d85" stroke="#000000"></path><path d="M135 952L0 960L153 960Z" fill="#1c567f" stroke="#000000"></path><path d="M153 960L0 960L355 968Z" fill="#075878" stroke="#000000"></path><path d="M-4 960L0 960L0 875Z" fill="#9a3356" stroke="#000000"></path><path d="M-6 119L-4 960L0 542Z" fill="#435186" stroke="#000000"></path><path d="M0 960L-4 960L355 968Z" fill="#78427a" stroke="#000000"></path></g></svg>